<svg width="100%" height="100%" viewBox="0 0 200 200" xmlns="http://www.w3.org/2000/svg">
  <g stroke="#333" stroke-width="1.5" fill="none">
    <!-- Business person with umbrella -->
    <circle cx="80" cy="60" r="15" /> <!-- Head -->
    <path d="M80,75 L80,130" /> <!-- Body -->
    <path d="M80,85 L60,110" /> <!-- Left arm -->
    <path d="M80,85 L100,70" /> <!-- Right arm holding umbrella -->
    <path d="M70,130 L60,160" /> <!-- Left leg -->
    <path d="M90,130 L100,160" /> <!-- Right leg -->
    
    <!-- Umbrella -->
    <path d="M100,30 L100,70" /> <!-- Umbrella handle -->
    <path d="M60,30 C60,15 140,15 140,30" /> <!-- Umbrella top -->
    
    <!-- Briefcase -->
    <rect x="65" y="110" width="30" height="20" rx="2" />
    <path d="M75,110 L75,100" />
    <path d="M85,110 L85,100" />
    
    <!-- Rain drops -->
    <line x1="30" y1="40" x2="25" y2="50" />
    <line x1="40" y1="60" x2="35" y2="70" />
    <line x1="150" y1="40" x2="145" y2="50" />
    <line x1="160" y1="60" x2="155" y2="70" />
    <line x1="130" y1="70" x2="125" y2="80" />
    <line x1="170" y1="80" x2="165" y2="90" />
  </g>
</svg>