<svg width="100%" height="100%" viewBox="0 0 200 200" xmlns="http://www.w3.org/2000/svg">
  <g stroke="#333" stroke-width="1.5" fill="none">
    <!-- Cafe table and chairs with couple -->
    <rect x="60" y="100" width="80" height="10" rx="2" /> <!-- Table -->
    
    <!-- Person 1 sitting -->
    <circle cx="70" cy="85" r="10" /> <!-- Head -->
    <path d="M70,95 L70,120" /> <!-- Body -->
    <path d="M70,100 L60,110" /> <!-- Left arm -->
    <path d="M70,100 L80,110" /> <!-- Right arm -->
    
    <!-- Person 2 sitting -->
    <circle cx="130" cy="85" r="10" /> <!-- Head -->
    <path d="M130,95 L130,120" /> <!-- Body -->
    <path d="M130,100 L120,110" /> <!-- Left arm -->
    <path d="M130,100 L140,110" /> <!-- Right arm -->
    
    <!-- Chairs -->
    <path d="M50,120 L70,120 L70,130 L50,130 Z" /> <!-- Chair 1 -->
    <path d="M150,120 L130,120 L130,130 L150,130 Z" /> <!-- Chair 2 -->
    
    <!-- Coffee cups -->
    <path d="M75,105 C75,102 85,102 85,105" />
    <path d="M115,105 C115,102 125,102 125,105" />
    
    <!-- Rain drops -->
    <line x1="30" y1="40" x2="25" y2="50" />
    <line x1="50" y1="30" x2="45" y2="40" />
    <line x1="70" y1="20" x2="65" y2="30" />
    <line x1="90" y1="25" x2="85" y2="35" />
    <line x1="110" y1="20" x2="105" y2="30" />
    <line x1="130" y1="30" x2="125" y2="40" />
    <line x1="150" y1="25" x2="145" y2="35" />
    <line x1="170" y1="35" x2="165" y2="45" />
  </g>
</svg>