<svg width="100%" height="100%" viewBox="0 0 200 200" xmlns="http://www.w3.org/2000/svg">
  <g stroke="#333" stroke-width="1.5" fill="none">
    <rect x="20" y="40" width="160" height="120" rx="2" />
    <path d="M50,90 C50,80 60,70 80,70 C100,70 110,90 110,110 C110,130 100,150 80,150 C60,150 50,140 50,130 Z" />
    <path d="M110,100 C120,90 130,80 140,90 C150,100 140,110 130,120 C120,130 110,120 110,110 Z" />
    <path d="M30,60 L30,80 L40,70 Z" />
    <path d="M170,60 L170,80 L160,70 Z" />
    <line x1="30" y1="120" x2="50" y2="120" />
    <line x1="150" y1="120" x2="170" y2="120" />
    <line x1="90" y1="40" x2="90" y2="60" />
    <line x1="110" y1="40" x2="110" y2="60" />
    <path d="M130,140 C140,130 150,140 150,150" />
  </g>
</svg>